<svg xmlns="http://www.w3.org/2000/svg" viewBox="0 0 512 512" role="img" aria-label="DG Chat">
  <!--
    Maskable icons can be cropped to many platform-specific shapes. Keep the
    branded mark inside the standard 80% circular safe zone and paint every
    background pixel so a crop never exposes transparency.
  -->
  <defs>
    <linearGradient id="mark" x1="142" y1="132" x2="378" y2="374" gradientUnits="userSpaceOnUse">
      <stop stop-color="#d9ccff" />
      <stop offset="1" stop-color="#9d82f2" />
    </linearGradient>
  </defs>
  <rect width="512" height="512" fill="#17131f" />
  <path
    fill="url(#mark)"
    d="M132 141c0-17.7 14.3-32 32-32h83c76.8 0 139 62.2 139 139s-62.2 139-139 139h-83c-17.7 0-32-14.3-32-32V141Zm64 32v150h51c41.4 0 75-33.6 75-75s-33.6-75-75-75h-51Z"
  />
  <path
    fill="#f7f4ff"
    d="M250 232h119c10.5 0 19 8.5 19 19v91c0 10.5-8.5 19-19 19h-38l-39 38c-7.6 7.4-20.3 2-20.3-8.6V361H250c-10.5 0-19-8.5-19-19v-91c0-10.5 8.5-19 19-19Z"
  />
  <circle cx="275" cy="297" r="10" fill="#6e55bd" />
  <circle cx="310" cy="297" r="10" fill="#6e55bd" />
  <circle cx="345" cy="297" r="10" fill="#6e55bd" />
</svg>
